<?xml version="1.0" standalone="no"?>
<!DOCTYPE svg PUBLIC "-//W3C//DTD SVG 20010904//EN"
 "http://www.w3.org/TR/2001/REC-SVG-20010904/DTD/svg10.dtd">
<svg version="1.0" xmlns="http://www.w3.org/2000/svg"
 width="1280.000000pt" height="1280.000000pt" viewBox="0 0 1280.000000 1280.000000"
 preserveAspectRatio="xMidYMid meet">
<g transform="translate(0.000000,1280.000000) scale(0.100000,-0.100000)"
fill="#000000" stroke="none">
<path d="M10710 10029 c-32 -13 -78 -57 -96 -91 -19 -37 -18 -112 3 -155 9
-20 34 -47 54 -62 21 -14 40 -31 43 -37 6 -14 -10 -744 -24 -1094 -24 -614
-56 -927 -98 -962 -9 -8 -46 -25 -82 -38 -161 -56 -383 -185 -481 -278 -268
-252 -461 -748 -662 -1697 -31 -143 -61 -287 -67 -321 -14 -73 -25 -93 -40
-78 -19 19 -108 231 -226 537 -237 616 -344 869 -480 1137 -339 670 -750 1170
-1211 1473 -435 285 -980 476 -1593 558 -232 30 -684 38 -927 15 -739 -71
-1373 -314 -1896 -728 -205 -163 -443 -420 -599 -648 -330 -481 -585 -1224
-675 -1970 -25 -206 -25 -689 1 -885 55 -429 161 -776 347 -1134 45 -88 66
-137 58 -141 -6 -4 -260 -10 -566 -15 -626 -8 -614 -6 -788 -89 -190 -90 -347
-222 -406 -341 -115 -234 74 -401 533 -469 102 -16 197 -21 823 -51 176 -9
590 -31 920 -50 2950 -169 4456 -195 5705 -99 748 57 1285 165 1589 320 250
127 565 405 798 704 315 404 542 947 594 1420 8 69 9 156 4 255 -13 245 -7
297 47 413 48 101 132 204 349 428 228 234 309 336 375 469 62 127 85 224 86
365 1 193 -37 322 -137 476 -83 128 -266 297 -407 377 -59 33 -63 62 -44 264
26 286 129 950 254 1643 l37 205 52 25 c64 31 92 56 109 97 33 76 4 173 -64
218 -123 81 -292 -2 -292 -144 0 -55 15 -90 57 -132 29 -30 34 -42 29 -65 -46
-228 -244 -1141 -297 -1369 -120 -519 -157 -641 -198 -657 -14 -6 -82 -13
-151 -15 -158 -6 -201 5 -211 57 -11 54 -37 1787 -30 2000 1 8 22 26 47 39
116 62 127 211 21 295 -31 25 -48 31 -100 33 -34 2 -73 -2 -87 -8z"/>
</g>
</svg>
